<svg xml:space="preserve" style="enable-background:new 0 0 1080 1080;" viewBox="0 0 1080 1080" y="0px" x="0px" xmlns:xlink="http://www.w3.org/1999/xlink" xmlns="http://www.w3.org/2000/svg" id="Layer_1" version="1.1">
<style type="text/css">
	.st0{fill:#050505;}
</style>
<g id="Logo_1_">
	<g>
		<path d="M531.6,439.5c-15.6,0-30.3,1-44.9,2c-39.1,2.9-77.2,9.8-115.3,19.5l33.2,38.1c25.4-5.9,50.8-9.8,76.2-11.7
			c-11.7,46.9-38.1,87.9-76.2,116.3v53.7C469,621.3,514,557.7,527.7,484.5C530.6,469.8,531.6,454.2,531.6,439.5z" class="st0"></path>
	</g>
	<g>
		<path d="M709.4,461c-38.1-9.8-76.2-16.6-115.3-19.5c-14.7-1-30.3-2-44.9-2c0,15.6,1,30.3,3.9,44.9
			c13.7,73.3,58.6,135.8,123.1,172.9v-53.7c-38.1-28.3-64.5-69.4-76.2-116.3c25.4,2,50.8,6.8,76.2,11.7L709.4,461z" class="st0"></path>
	</g>
	<g>
		<polygon points="519.9,658.4 560.9,611.5 560.9,561.7 519.9,561.7" class="st0"></polygon>
	</g>
</g>
<path d="M759.4,322.5c-28.4-28.6-61.5-51-98.3-66.7c-38.2-16.2-78.8-24.5-120.6-24.5h-0.7c-81.9,0.2-159,32.2-217,90
	c-58.6,58.3-90.8,136-90.8,218.6v0.3c0.1,82.7,32.5,160.3,91.1,218.6c58.2,57.8,135.4,89.6,217.4,89.6c82.6,0,160.3-32.2,218.6-90.8
	c57.9-58.2,89.9-135.4,90-217.5v-0.3C849.1,457.9,817.2,380.7,759.4,322.5z M769.7,539.9v0.3c-0.1,60.9-23.8,118.2-66.8,161.4
	c-43.3,43.5-101.1,67.5-162.5,67.5h-0.7c-60.6-0.2-117.6-23.8-160.7-66.4c-43.7-43.3-67.8-101-67.9-162.5v-0.3
	c0-61.4,24-119.1,67.5-162.5c43.1-42.9,100.2-66.6,161-66.8h0.7c61.6,0,119.4,24.1,162.8,67.9C746.1,421.7,769.7,479.1,769.7,539.9z
	 M533.7,298.8c-59.7,1.6-115.8,24.9-159.1,66l-39.1-39.1c53.8-51.5,123.8-80.6,198.3-82.2V298.8z M366.1,373.2
	c-41.9,43.7-65.4,100.5-66.8,161H244c1.4-75.3,30.7-146,83-200.2L366.1,373.2z M299.3,546.2c1.5,60.5,25.2,117.1,67.1,160.7
	l-39.1,39.1C274.9,692,245.5,621.5,244,546.2H299.3z M374.9,715.4c43.3,40.9,99.2,64,158.8,65.7v55.4
	c-74.3-1.6-144.1-30.5-197.9-81.9L374.9,715.4z M545.7,781.1c60.7-1.3,117.6-24.8,161.4-66.8l39.1,39.1
	c-54.3,52.4-125.1,81.7-200.6,83V781.1z M715.6,705.8c41.2-43.4,64.5-99.7,66-159.5H837c-1.6,74.6-30.6,144.8-82.2,198.7
	L715.6,705.8z M781.7,534.2c-1.4-59.9-24.5-116.3-65.7-159.9l39.1-39.1c51.6,54,80.5,124.3,81.9,199H781.7z M746.6,326.7l-39.1,39.1
	c-43.9-42.2-100.9-65.8-161.8-67.1v-55.4C621.4,244.7,692.3,274.1,746.6,326.7z" class="st0"></path>
</svg>
