<svg width="26" height="26" viewBox="0 0 22 16" fill="none" xmlns="http://www.w3.org/2000/svg" tabindex="-1" class="focus:outline-none"><path d="M17.9472 1.6182C16.6695 1.03192 15.2993 0.599977 13.8667 0.352585C13.8406 0.34781 13.8146 0.359742 13.8011 0.383607C13.6249 0.697022 13.4297 1.1059 13.2931 1.42727C11.7522 1.19659 10.2192 1.19659 8.70998 1.42727C8.57327 1.09875 8.37099 0.697022 8.19398 0.383607C8.18054 0.360539 8.15448 0.348607 8.12839 0.352585C6.69658 0.599186 5.32641 1.03113 4.04788 1.6182C4.03682 1.62297 4.02733 1.63093 4.02103 1.64127C1.4221 5.52401 0.710145 9.31133 1.05941 13.0517C1.06099 13.07 1.07126 13.0875 1.08548 13.0986C2.80018 14.3578 4.46116 15.1223 6.0913 15.629C6.11739 15.637 6.14503 15.6274 6.16163 15.606C6.54724 15.0794 6.89098 14.5241 7.1857 13.9402C7.20309 13.906 7.18649 13.8655 7.15094 13.8519C6.60572 13.6451 6.08656 13.3929 5.58716 13.1066C5.54766 13.0835 5.5445 13.027 5.58084 13C5.68593 12.9212 5.79105 12.8393 5.8914 12.7565C5.90955 12.7414 5.93485 12.7382 5.9562 12.7478C9.23702 14.2457 12.7889 14.2457 16.031 12.7478C16.0524 12.7375 16.0777 12.7406 16.0966 12.7558C16.197 12.8385 16.3021 12.9212 16.408 13C16.4443 13.027 16.4419 13.0835 16.4024 13.1066C15.903 13.3985 15.3839 13.6451 14.8379 13.8511C14.8023 13.8647 14.7865 13.906 14.8039 13.9402C15.1049 14.5233 15.4487 15.0786 15.8272 15.6052C15.843 15.6274 15.8714 15.637 15.8975 15.629C17.5355 15.1223 19.1965 14.3578 20.9112 13.0986C20.9262 13.0875 20.9357 13.0708 20.9373 13.0525C21.3553 8.72821 20.2372 4.97196 17.9733 1.64206C17.9678 1.63093 17.9583 1.62297 17.9472 1.6182ZM7.67564 10.7742C6.68788 10.7742 5.874 9.86736 5.874 8.75368C5.874 7.64 6.6721 6.73316 7.67564 6.73316C8.68706 6.73316 9.49306 7.64796 9.47725 8.75368C9.47725 9.86736 8.67915 10.7742 7.67564 10.7742ZM14.3369 10.7742C13.3492 10.7742 12.5353 9.86736 12.5353 8.75368C12.5353 7.64 13.3333 6.73316 14.3369 6.73316C15.3483 6.73316 16.1543 7.64796 16.1385 8.75368C16.1385 9.86736 15.3483 10.7742 14.3369 10.7742Z" fill="white" tabindex="-1" class="focus:outline-none"></path></svg>