<svg width="29" height="29" viewBox="0 0 24 24" fill="none" xmlns="http://www.w3.org/2000/svg" tabindex="-1" class="focus:outline-none"><path d="M11.9849 6.09102C13.3734 6.09016 14.7173 6.58081 15.7786 7.47603L18.7514 4.64509C17.6102 3.59284 16.2395 2.82106 14.748 2.391C13.2565 1.96093 11.6853 1.88442 10.1591 2.16753C8.6329 2.45064 7.19368 3.08559 5.95567 4.02198C4.71766 4.95836 3.71495 6.17041 3.0271 7.56194L6.3785 10.1452C6.76936 8.96654 7.52114 7.94078 8.52735 7.21316C9.53357 6.48555 10.7432 6.09296 11.9849 6.09102V6.09102Z" fill="#D94F3D" tabindex="-1" class="focus:outline-none"></path><path d="M6.07582 12.0002C6.07666 11.3696 6.17887 10.7433 6.37855 10.1452L3.02714 7.56195C2.34162 8.94101 1.98486 10.4601 1.98486 12.0002C1.98486 13.5402 2.34162 15.0594 3.02714 16.4384L6.37855 13.8552C6.17887 13.2571 6.07666 12.6308 6.07582 12.0002V12.0002Z" fill="#F2C042" tabindex="-1" class="focus:outline-none"></path><path d="M21.5761 10.182H12.0305V14.2729H17.4397C17.1179 15.4297 16.3807 16.427 15.3692 17.0739L18.6947 19.6375C20.8197 17.7303 22.0684 14.6288 21.5761 10.182Z" fill="#5085ED" tabindex="-1" class="focus:outline-none"></path><path d="M15.3677 17.0739C14.34 17.6621 13.1683 17.9515 11.9849 17.9093C10.7432 17.9074 9.53357 17.5148 8.52735 16.7872C7.52114 16.0596 6.76936 15.0338 6.3785 13.8552L3.0271 16.4384C3.8549 18.1071 5.13188 19.5118 6.71439 20.4943C8.29691 21.4769 10.1222 21.9985 11.9849 22.0003C14.436 22.0669 16.8252 21.2251 18.6932 19.6366L15.3677 17.0739Z" fill="#57A75C" tabindex="-1" class="focus:outline-none"></path></svg>