<svg viewBox="0 0 24 24" fill="#ff5900" xmlns="http://www.w3.org/2000/svg" tabindex="-1" class="focus:outline-none"><path d="M11.5837 7C10.8438 7 10.1502 7.04624 9.45657 7.09248C7.60688 7.23121 5.80344 7.5549 4 8.01733L5.57223 9.82077C6.77452 9.54331 7.97682 9.35835 9.17911 9.26586C8.62421 11.4855 7.37567 13.4276 5.57223 14.7687V17.312C8.62421 15.601 10.7513 12.5953 11.3987 9.12714C11.5375 8.4335 11.5837 7.69363 11.5837 7Z" tabindex="-1" class="focus:outline-none"></path><path d="M20 8.01733C18.1965 7.5549 16.3931 7.23121 14.5434 7.09248C13.8498 7.04624 13.1099 7 12.4163 7C12.4163 7.73987 12.4625 8.4335 12.6012 9.12714C13.2486 12.5953 15.3758 15.5548 18.4277 17.312V14.7687C16.6243 13.4276 15.3758 11.4855 14.8208 9.26586C16.0231 9.35835 17.2254 9.58956 18.4277 9.82077L20 8.01733Z" tabindex="-1" class="focus:outline-none"></path><path d="M11.0291 17.3578L12.9712 15.1381V12.7798H11.0291V17.3578Z" tabindex="-1" class="focus:outline-none"></path></svg>