<svg viewBox="0 0 24 24" fill="none" xmlns="http://www.w3.org/2000/svg" width="30" height="30" tabindex="-1" class="focus:outline-none"><path d="M21 6.688c-.675.337-1.35.45-2.137.562.787-.45 1.35-1.125 1.575-2.025-.675.45-1.463.675-2.363.9A3.928 3.928 0 0015.375 5c-1.912 0-3.6 1.688-3.6 3.713 0 .337 0 .562.112.787-3.037-.113-5.85-1.575-7.65-3.825-.337.563-.45 1.125-.45 1.913 0 1.237.676 2.362 1.688 3.037-.563 0-1.125-.225-1.687-.45 0 1.8 1.237 3.262 2.925 3.6-.338.112-.676.112-1.013.112-.225 0-.45 0-.675-.112.45 1.463 1.8 2.588 3.487 2.588C7.275 17.375 5.7 17.938 3.9 17.938H3c1.688 1.012 3.6 1.687 5.625 1.687 6.75 0 10.462-5.625 10.462-10.463v-.45C19.875 8.15 20.55 7.476 21 6.689z" fill="white" tabindex="-1" class="focus:outline-none"></path></svg>